Coordinates
nRows=7
nColumns=24

# SIMM Motion File Header:
name Coordinates
datacolumns 24
datarows 7
otherdata 1
range 0.26333000000000001000 0.26933000000000001000
endheader
time	pelvis_tx	pelvis_ty	pelvis_tz	pelvis_tilt	pelvis_list	pelvis_rotation	hip_flexion_r	hip_adduction_r	hip_rotation_r	knee_angle_r	ankle_angle_r	subtalar_angle_r	mtp_angle_r	hip_flexion_l	hip_adduction_l	hip_rotation_l	knee_angle_l	ankle_angle_l	subtalar_angle_l	mtp_angle_l	lumbar_extension	lumbar_bending	lumbar_rotation
      0.26333000000000001000	      0.77073227758907592000	      0.94998454740137461000	     -0.19990342019710838000	     -0.17684137407708156000	     -1.21908715549827500000	      1.42345881544355460000	      7.98851168364565110000	      2.95095766665883860000	      7.67728782824296200000	     -9.25731835393177960000	      2.04575384474290310000	      0.00000000000000820005	      0.00000000000000961688	      6.33445881250338070000	     -3.20597059435213620000	     -2.71496675516118110000	    -52.48977275759099100000	    -15.97131092967639500000	     -0.00000000000000015505	     -0.00000000000000117494	     -2.66097738584760710000	      4.54863346439400650000	      2.35996871494523570000
      0.26433000000000001000	      0.77142479309767342000	      0.95004794115587243000	     -0.19983842577498268000	     -0.16231332805502990000	     -1.20818593793398570000	      1.44241258887882550000	      7.90277712779452730000	      2.94801961027402810000	      7.71858696130343880000	     -9.21945380201401220000	      2.08234880580405160000	      0.00000000000000831952	      0.00000000000000983182	      6.45170169054751770000	     -3.20322337688131540000	     -2.70039792744645270000	    -52.59523476892128000000	    -15.75452370256967200000	     -0.00000000000000015872	     -0.00000000000000120814	     -2.67769065745632370000	      4.53375912748564320000	      2.37193088967284100000
      0.26533000000000001000	      0.77211713659007808000	      0.95011335934245478000	     -0.19977250953670200000	     -0.14670686518089446000	     -1.19786513168095610000	      1.46084948582465430000	      7.81602728154561620000	      2.94603656526337910000	      7.75926895789708840000	     -9.18188024378843260000	      2.11930367919189690000	      0.00000000000000845431	      0.00000000000001001281	      6.56702787422925200000	     -3.20117793841832830000	     -2.68627484203540500000	    -52.69674207075719600000	    -15.54562538823440200000	     -0.00000000000000016000	     -0.00000000000000124261	     -2.69562261969506570000	      4.51947323471622560000	      2.38460317444924240000
      0.26633000000000001000	      0.77280924634583548000	      0.95018151612490120000	     -0.19970534557306385000	     -0.12964211357070096000	     -1.18832870259699530000	      1.47858658020383160000	      7.72790515405315230000	      2.94534501758590880000	      7.79911544678908180000	     -9.14470172762642440000	      2.15675438837601390000	      0.00000000000000860993	      0.00000000000001014754	      6.67976085668488210000	     -3.20008063182272990000	     -2.67275431328596410000	    -52.79289246082803500000	    -15.34741381299418000000	     -0.00000000000000015802	     -0.00000000000000127887	     -2.71520244795256050000	      4.50598224100983290000	      2.39823675549657710000
      0.26733000000000001000	      0.77350135610159287000	      0.95024967290734763000	     -0.19963818160942570000	     -0.11257736196050749000	     -1.17879227351303430000	      1.49632367458300910000	      7.63978302656068830000	      2.94465346990843810000	      7.83896193568107510000	     -9.10752321146441620000	      2.19420509756013130000	      0.00000000000000876556	      0.00000000000001028226	      6.79249383914051120000	     -3.19898332522713160000	     -2.65923378453652370000	    -52.88904285089887500000	    -15.14920223775395800000	     -0.00000000000000015605	     -0.00000000000000131512	     -2.73478227621005490000	      4.49249124730344110000	      2.41187033654391140000
      0.26833000000000001000	      0.77419268129303065000	      0.95032107095469565000	     -0.19956915251811352000	     -0.09402598996226627100	     -1.16990878423217690000	      1.51288715256274830000	      7.55058850509838390000	      2.94538887042909230000	      7.87768968557702110000	     -9.07148009705953840000	      2.23484473999363380000	      0.00000000000000892788	      0.00000000000001037763	      6.90191361620101950000	     -3.19852285622878090000	     -2.64636787891807850000	    -52.97572370066197300000	    -14.96746655999529100000	     -0.00000000000000015277	     -0.00000000000000134956	     -2.75600925956135210000	      4.47952429362365300000	      2.42704031706584860000
      0.26933000000000001000	      0.77488394041580466000	      0.95039274195103673000	     -0.19949996636320541000	     -0.07534942870905231300	     -1.16108027943030940000	      1.52935179955385660000	      7.46130367665307230000	      2.94624443517138920000	      7.91632322574562240000	     -9.03553259556378660000	      2.27575292453839580000	      0.00000000000000909076	      0.00000000000001046969	      7.01105438611328590000	     -3.19811601573235250000	     -2.63355709953274310000	    -53.06160711437105000000	    -14.78711832811541500000	     -0.00000000000000014938	     -0.00000000000000138383	     -2.77737495089800700000	      4.46660146969012220000	      2.44233967877151770000
